<?xml version="1.0" encoding="UTF-8"?>
<svg width="752pt" height="752pt" version="1.1" viewBox="0 0 752 752" xmlns="http://www.w3.org/2000/svg">
 <g>
  <rect width="752" height="752" fill="#fff"/>
  <path d="m611.36 238.95h-67.449v-97.586h-267.64l-68.168 58.84v38.746h-66.73v321.46h184.41l-34.441 50.227h168.62l-34.441-50.227h185.13l-0.003906-321.46zm-67.449 39.465h27.266v243.25h-27.266zm-10.762 243.25h-314.29v-311.41h37.312c15.07 0 27.266-11.48 27.266-25.113v-33.012h249.71zm-325.05 0h-27.266v-243.25h27.266zm17.941-322.18 47.359-40.898v26.551c0 7.8945-7.1758 14.352-16.504 14.352zm213.83 401.11h-127.72l27.266-39.465h73.906zm160.73-50.227h-448.47v-300.65h56.688v17.938h-38.746v264.77h411.16l-0.003906-264.77h-38.031v-17.938h56.688v300.65z" fill="#000100"/>
  <path d="m376 302.81c-61.711 0-111.94 30.855-151.4 80.367 39.465 49.512 90.41 80.367 151.4 80.367 61.711 0 111.94-30.855 151.4-80.367-39.465-49.512-90.41-80.367-151.4-80.367zm54.535 63.859c0 29.418-24.398 53.098-54.535 53.098s-54.535-23.68-54.535-53.098 24.398-53.098 54.535-53.098 54.535 23.68 54.535 53.098zm83.234 16.504c-37.312 44.488-86.105 69.602-137.77 69.602-51.66 0-100.46-25.113-137.77-69.602 26.551-31.57 58.121-53.098 93.281-63.145-12.914 11.48-20.809 27.984-20.809 46.641 0 35.16 29.418 63.863 65.297 63.863s65.297-28.703 65.297-63.863c0-18.656-7.8945-35.16-20.809-46.641 34.441 10.047 66.734 31.574 93.281 63.145z" fill="#000100"/>
  <path d="m347.3 366.67c0 15.785 12.914 27.984 28.703 27.984 15.785 0 28.703-12.914 28.703-27.984s-12.914-27.984-28.703-27.984c-15.789 0-28.703 12.199-28.703 27.984zm46.641 0c0 9.3281-7.8945 17.223-17.938 17.223-10.047 0-17.938-7.8945-17.938-17.223s7.8945-17.223 17.938-17.223c10.043 0.003906 17.938 7.1797 17.938 17.223z" fill="#000100"/>
  <path d="m476.46 170.07h31.57v10.762h-31.57z" fill="#000100"/>
  <path d="m321.47 199.48h186.56v10.762h-186.56z" fill="#000100"/>
  <path d="m321.47 238.95h186.56v10.762h-186.56z" fill="#000100"/>
  <path d="m238.23 492.24h269.8v10.762h-269.8z" fill="#000100"/>
  <path d="m423.36 170.07h31.57v10.762h-31.57z" fill="#000100"/>
 </g>
</svg>
